<svg xmlns="http://www.w3.org/2000/svg" viewBox="0 0 1001 1001">
<rect fill="#005BFF" width="1001" height="1001" rx="200"/>
<path fill="#F1117E" d="M1111.4,857.1c-76,68.3-163.6,169.2-273.6,165.2c-29.6-20,17.2-58.9,32.2-75.7c47.9-53.8,95.3-111.2,141.9-169.7C1179.6,566.3,1124.7,683.7,1111.4,857.1z"/>
<path fill="#F1117E" d="M916.4-178.5C841.5-7.4,749.7,162.6,620.3,299.4c-89.6,94.6-152,165.3-262.5,250.3C229.8,648,104.7,724.7-16.4,829c-64,58.9-139.5,107.7-220.9,142.3c0.5,6.6,7.3,102.7,7.6,103.9c1.1-0.6,23.8-18.8,28.3-22.2c191.1-132.9,410.8-222.2,597.9-364.6C626.6,494.9,819.4,255.4,984.1,4.5C1133.9-204.7,1232.2-208.2,916.4-178.5z"/>
<path fill="#F1117E" d="M183.7,53.3c-44.7,47.3-88.3,94.6-131.9,142.9c-23.8,26.4-45.2,54.8-68.7,81.6c-42,47.9-85.4,95.2-135,134.4c-50.3,39.7-104.4,79.7-155.7,118.1c-0.1-2.9-6.2-137.4-6.3-140.4c21.7-36.8,43.6-78.5,59.8-118.5c9.5-23.6,17.9-48.5,27.5-72.1c18.3-45.5,42.4-87.1,77.8-120.3c19.8-18.6,42.5-31.7,65.8-44.2C-13,3,57-41,127.2-78.1c41.8-22.2,73.5-61,110.8-90.2l148.1-6.7C318.8-98.5,253.8-20.9,183.7,53.3z"/>
<path fill="#F1117E" d="M508.5,1129.5c55.7-56.6,251-188,219.9-206c-2.8-1.6-6.3-1.6-9.2-0.2c-107.2,51.8-207.3,125.5-282.7,218.9c-1.9,2.4-4.9,3.8-8,3.8c-17.6-0.2-74.7-0.8-111.3-1.2c-9.8-0.1-13.7-12.7-5.7-18.3c6.2-4.4,11.3-8.1,14.2-10.2c88.4-68.1,186.8-119.3,282.2-174.8c114.3-66.6,213.5-156.4,291-263.7c35.7-49.3,72.1-98,114.7-141.2c0.5-0.5,1-0.9,1.5-1.2c119-80.9,151.9-322.7,316-408.2c6.8-3.5,14.9,1.4,14.8,9c-0.5,62.2-82.8,112.8-88.2,176.6c-0.1,0.6-0.2,1.3-0.3,1.9c-63.8,232-288.7,389.4-395.4,510.5c-63.4,71.9-138.5,215.1-224.9,310.7c-0.9,1-1.7,2.3-2.1,3.6c-4.3,13.2-81.7,8.6-119.8,7.3C506.6,1146.3,502.3,1135.7,508.5,1129.5z"/>
<path fill="#FFF" d="M420,576.5l-88.2,23.6l72.7-179.3c1.6-4-0.4-8.5-4.4-10.1c-1.5-0.6-3.2-0.7-4.9-0.3l-163,43.7c-14.4,3.9-22.9,18.6-19.1,33c3.9,14.4,18.6,22.9,33,19.1l73.3-19.6l-73.1,179.5c-1.7,3.9,0.2,8.5,4.1,10.1c1.6,0.7,3.4,0.8,5.1,0.3l178.4-47.8c14.2-4.6,21.9-19.8,17.3-34c-4.3-13.1-17.8-20.9-31.3-18.1L420,576.5z M946.4,262.7c-14.4,3.9-22.9,18.6-19.1,33l23.4,87.4l-170.8-74c-3.9-1.8-8.5,0-10.2,3.9c-0.7,1.6-0.9,3.5-0.4,5.2l48.1,179.6c3.9,14.4,18.6,22.9,33,19.1c14.4-3.9,22.9-18.6,19.1-33l-23.4-87.4l170.8,74.1c4,1.7,8.5-0.2,10.2-4.1c0.7-1.6,0.8-3.4,0.4-5.1l-48.1-179.6C975.6,267.3,960.8,258.8,946.4,262.7 M618.3,528.6c-59.6,16-112.6-3.5-120.1-31.6c-7.5-28.1,28.6-71.4,88.2-87.4c59.6-16,112.6,3.5,120.1,31.6C714.1,469.3,678,512.6,618.3,528.6 M572.5,357.6c-86.3,23.1-142.8,91.8-126.3,153.4c16.5,61.6,99.8,92.8,186.1,69.7s142.8-91.8,126.3-153.4C742.1,365.6,658.8,334.4,572.5,357.6 M105.5,666.1c-32.9,8.9-66.7-10.6-75.6-43.5c-8.9-32.9,10.6-66.7,43.5-75.6c32.9-8.9,66.7,10.6,75.6,43.5l0,0.1C157.9,623.4,138.4,657.2,105.5,666.1 M59.7,495c-61.6,16.5-98.3,79.8-81.8,141.5c16.5,61.7,79.8,98.3,141.5,81.8c61.6-16.5,98.3-79.8,81.8-141.5c0,0,0-0.1,0-0.1C184.6,515,121.3,478.5,59.7,495"/>
</svg>
