<svg xmlns="http://www.w3.org/2000/svg" viewBox="0 0 1000 833.2">
<circle fill="#FF5226" cx="529.3" cy="416.6" r="416.6"/>
<path fill="#FFDD00" d="M464.8,56.4L0,781.6h213.1l268.5-418l-6.6-3l-74.4,299.1l157.6,27.8l162-203.6l-8.8-4.4l-54.7,231.2l343.4-65.4L930,530l-123.8,28.3l14.6,16.8l57.6-241.5l-134.3-89.8L568.4,464.9l8.7,4.4l72.2-289.7C649.3,179.6,464.8,56.4,464.8,56.4z"/>
<path fill="#FFDD00" d="M464.8,56.4L0,781.6h213.1l268.5-418l-6.6-3l-74.4,299.1l157.6,27.8l162-203.6l-8.8-4.4l-54.7,231.2l138-26.3l83.8-350.9l-134.3-89.8L568.4,464.9l8.7,4.4l72.2-289.7C649.3,179.6,464.8,56.4,464.8,56.4z"/>
</svg>
